<?xml version="1.0" encoding="utf-8"?>
<!-- Generator: Adobe Illustrator 21.1.0, SVG Export Plug-In . SVG Version: 6.00 Build 0)  -->
<svg version="1.1" id="Layer_1" xmlns="http://www.w3.org/2000/svg" xmlns:xlink="http://www.w3.org/1999/xlink" x="0px" y="0px"
	 viewBox="0 0 500 500" style="enable-background:new 0 0 500 500;" xml:space="preserve">
<style type="text/css">
	.st0{fill:#005B50;}
	.st1{fill:#F2F2F2;}
	.st2{fill:#CCCCCC;}
	.st3{fill:#333333;}
	.st4{fill:#00C4AB;}
	.st5{fill:#008575;}
	.st6{fill:#006E60;}
</style>
<g id="Layer_2_1_">
	<path class="st0" d="M498,250C498,113,387,2,250,2S2,113,2,250c0,7.9,0.4,15.6,1.1,23.3h493.8C497.6,265.6,498,257.9,498,250z"/>
</g>
<path class="st1" d="M435.6,293.8c17,0,30.9-15.1,30.9-33.5s-13.9-33.5-30.9-33.5c-0.6,0-1.3,0.2-1.9,0.2c1.2-3.7,1.9-7.4,1.9-11.3
	c0-18.5-13.9-33.5-30.9-33.5c0-18.5-13.9-33.5-30.9-33.5c-5.4,0-10.6,1.6-15.2,4.5c-8.7-15.2-27-20.2-41.2-11.2
	c-1.6-2.8-3.4-5-5.7-7.1c-0.9-12.8-8.4-23.8-19.2-28.5c-10.9-4.7-23.4-2.3-32.1,6.3c-7.6-7.6-18.3-10.5-28.3-7.6
	c-10,2.8-18,10.8-21.3,21.5c-0.6,0-1.2-0.2-1.8-0.2c-10.6,0-20.4,6-26.1,15.7c-14.3-9.1-32.5-4-41.2,11.2c-4.6-2.9-9.8-4.4-15.2-4.5
	c-17,0-30.9,15.1-30.9,33.5c-17,0-30.9,15.1-30.9,33.5c0,3.9,0.7,7.8,1.9,11.3c-0.6,0-1.3-0.2-1.9-0.2c-17,0-30.9,15.1-30.9,33.5
	c0,18.5,13.9,33.5,30.9,33.5h370.8v-0.1H435.6z"/>
<path class="st2" d="M136.7,232h-20.6c0-22.8,18.5-41.2,41.2-41.2v20.6C145.9,211.4,136.7,220.6,136.7,232z"/>
<path class="st2" d="M280.9,232h-20.6c0-11.3-9.2-20.6-20.6-20.6v-20.6C262.6,190.8,280.9,209.3,280.9,232z"/>
<path class="st2" d="M393.4,242.4h-20.6c0-11.3-9.2-20.6-20.6-20.6v-20.6C374.9,201.1,393.4,219.6,393.4,242.4z"/>
<path class="st2" d="M332.5,242.4h-20.6c0-22.8,18.5-41.2,41.2-41.2v20.6C341.8,221.7,332.5,230.9,332.5,242.4z"/>
<rect x="332.2" y="366.1" class="st3" width="0.3" height="20.6"/>
<polygon class="st3" points="373.7,345.5 479,345.5 479,345.5 "/>
<path class="st4" d="M373.7,324.9v20.6H479c2.8-6.7,5.3-13.6,7.5-20.6H373.7z"/>
<path class="st4" d="M332.2,366.1v20.6h124.7c4.4-6.6,8.5-13.5,12.3-20.6H332.2z"/>
<g>
	<path class="st4" d="M373.7,345.5v-20.6h112.8c5.2-16.5,8.8-33.8,10.4-51.6H3.1C14.8,399.3,120.9,498,250,498
		c86.5,0,162.6-44.3,207-111.4H332.5h-0.3V366h0.3h136.7c3.5-6.7,6.8-13.6,9.7-20.6L373.7,345.5L373.7,345.5z"/>
	<rect x="332.2" y="362.6" class="st4" width="49" height="27.2"/>
	<rect x="372.9" y="316.3" class="st4" width="49" height="33.7"/>
</g>
<path class="st4" d="M229.4,469.1c-91.3-0.6-170.2-63.5-190.9-152.3l20.1-4.6c18.6,79.5,89.2,135.9,170.9,136.3v20.6H229.4z"/>
<g id="Layer_3_1_">
	<g id="Layer_3">
		<g>
			
				<rect x="166.1" y="352.5" transform="matrix(0.7071 -0.7071 0.7071 0.7071 -201.5305 269.9958)" class="st5" width="118.2" height="51.5"/>
			<polygon class="st0" points="311.9,381.5 332.2,401.9 295.9,438.3 212.3,354.8 248.7,318.3 291.8,361.3 			"/>
			<polyline class="st6" points="248.7,391.2 241.7,398.2 205.3,361.6 212.3,354.7 248.7,391.2 			"/>
		</g>
	</g>
</g>
</svg>
