<?xml version="1.0"?>
<svg xmlns="http://www.w3.org/2000/svg" height="512px" viewBox="0 0 512 512" width="512px"><path d="m218 0h-198c-11.046875 0-20 8.953125-20 20v198c0 11.046875 8.953125 20 20 20h198c11.046875 0 20-8.953125 20-20v-198c0-11.046875-8.953125-20-20-20zm-20 198h-158v-158h158zm0 0" fill="#FFFFFF"/><path d="m492 0h-198c-11.046875 0-20 8.953125-20 20v198c0 11.046875 8.953125 20 20 20h198c11.046875 0 20-8.953125 20-20v-198c0-11.046875-8.953125-20-20-20zm-20 198h-158v-158h158zm0 0" fill="#FFFFFF"/><path d="m218 274h-198c-11.046875 0-20 8.953125-20 20v198c0 11.046875 8.953125 20 20 20h198c11.046875 0 20-8.953125 20-20v-198c0-11.046875-8.953125-20-20-20zm-20 198h-158v-158h158zm0 0" fill="#FFFFFF"/><path d="m492 274h-99c-11.046875 0-20 8.953125-20 20v79h-79c-11.046875 0-20 8.953125-20 20v99c0 11.046875 8.953125 20 20 20h99c11.046875 0 20-8.953125 20-20v-79h79c11.046875 0 20-8.953125 20-20v-99c0-11.046875-8.953125-20-20-20zm-119 198h-59v-59h59zm99-99h-59v-59h59zm0 0" fill="#FFFFFF"/><path d="m144 393c0 13.808594-11.191406 25-25 25s-25-11.191406-25-25 11.191406-25 25-25 25 11.191406 25 25zm0 0" fill="#FFFFFF"/><path d="m144 119c0 13.808594-11.191406 25-25 25s-25-11.191406-25-25 11.191406-25 25-25 25 11.191406 25 25zm0 0" fill="#FFFFFF"/><path d="m418 119c0 13.808594-11.191406 25-25 25s-25-11.191406-25-25 11.191406-25 25-25 25 11.191406 25 25zm0 0" fill="#FFFFFF"/></svg>
