<?xml version="1.0" encoding="utf-8"?>
<!-- Generator: Adobe Illustrator 21.1.0, SVG Export Plug-In . SVG Version: 6.00 Build 0)  -->
<svg version="1.1" xmlns="http://www.w3.org/2000/svg" xmlns:xlink="http://www.w3.org/1999/xlink" x="0px" y="0px"
	 viewBox="0 0 500 500" style="enable-background:new 0 0 500 500;" xml:space="preserve">
<style type="text/css">
	.st0{fill:#333333;}
	.st1{fill:#005B50;}
	.st2{fill:#F2F2F2;}
	.st3{fill:#CCCCCC;}
	.st4{fill:#00C4AB;}
	.st5{fill:#A5F2E5;}
	.st6{fill:#62D9C7;}
	.st7{fill:#88EAD9;}
</style>
<g id="Layer_2">
	<circle class="st0" cx="250" cy="250" r="248"/>
</g>
<g id="Layer_1">
	<path class="st1" d="M208.5,398.2h82.9v41.5h-82.9V398.2z"/>
	<path class="st2" d="M374.4,273.8c11.4,0,20.7-9.3,20.7-20.7c0-11.4-9.3-20.7-20.7-20.7c-0.4,0-0.9,0.1-1.3,0.1
		c0.8-2.3,1.3-4.6,1.3-7c0-11.4-9.3-20.7-20.7-20.7c0-11.4-9.3-20.7-20.7-20.7c-3.6,0-7.1,1-10.2,2.8c-5.8-9.4-18.1-12.5-27.6-6.9
		c-1.1-1.7-2.3-3.1-3.8-4.4c-0.6-7.9-5.6-14.7-12.9-17.6c-7.3-2.9-15.7-1.4-21.5,3.9c-5.1-4.7-12.3-6.5-19-4.7
		c-6.7,1.7-12.1,6.7-14.3,13.3c-0.4,0-0.8-0.1-1.2-0.1c-7.1,0-13.7,3.7-17.5,9.7c-9.6-5.6-21.8-2.5-27.6,6.9
		c-3.1-1.8-6.6-2.7-10.2-2.8c-11.4,0-20.7,9.3-20.7,20.7c-11.4,0-20.7,9.3-20.7,20.7c0,2.4,0.5,4.8,1.3,7c-0.4,0-0.9-0.1-1.3-0.1
		c-11.4,0-20.7,9.3-20.7,20.7c0,11.4,9.3,20.7,20.7,20.7H374.4z"/>
	<g>
		<path class="st3" d="M174,232.3h-13.8c0-15.3,12.4-27.6,27.6-27.6v13.8C180.2,218.5,174,224.7,174,232.3z"/>
		<path class="st3" d="M270.7,232.3h-13.8c0-7.6-6.2-13.8-13.8-13.8v-13.8C258.4,204.7,270.7,217.1,270.7,232.3z"/>
		<path class="st3" d="M346.8,239.3h-13.8c0-7.6-6.2-13.8-13.8-13.8v-13.8C334.4,211.6,346.8,224,346.8,239.3z"/>
		<path class="st3" d="M305.3,239.3h-13.8c0-15.3,12.4-27.6,27.6-27.6v13.8C311.5,225.4,305.3,231.6,305.3,239.3z"/>
	</g>
	<path class="st4" d="M332.9,308.4v-13.8h78.9c2.6-11.3,4-22.9,4-34.6H84.1c0,84,68.1,152,152,152h27.6c54.3,0,104.5-29,131.6-76
		h-90.2v-13.8h97.3c2-4.5,3.8-9.1,5.4-13.8H332.9z"/>
	<path class="st1" d="M332.9,308.4h75c1.5-4.5,2.8-9.1,3.9-13.8h-78.9V308.4z"/>
	<path class="st1" d="M305.3,336h90.2c2.6-4.5,5-9.1,7.1-13.8h-97.3V336z"/>
	<path class="st1" d="M236.2,391.3c-61.2-0.4-114.1-42.6-128-102.1l13.5-3.1c12.5,53.3,59.8,91.1,114.6,91.4V391.3z"/>
</g>
<g id="Layer_3">
	<g>
		
			<rect x="194.3" y="77.1" transform="matrix(0.7071 -0.7071 0.7071 0.7071 1.7768 193.1959)" class="st5" width="79.6" height="34.7"/>
		<polygon class="st6" points="292.6,96.6 306.3,110.3 281.8,134.9 225.5,78.6 250,54 279,83 		"/>
		<polyline class="st7" points="250,103.1 245.3,107.8 220.8,83.2 225.5,78.5 250,103.1 		"/>
	</g>
</g>
</svg>
