<svg xmlns="http://www.w3.org/2000/svg" viewBox="0 0 16 20.42"><defs><style>.a{fill:#ffb300;}</style></defs><g transform="translate(-287.9 -1869.78)"><path class="a" d="M153.6,65.2a3.138,3.138,0,0,1-3.2-3.1,3.046,3.046,0,0,1,2.8-3.1,7.873,7.873,0,0,0,4-1.9.477.477,0,0,1,.8.2,16.476,16.476,0,0,1,.4,3.2A4.717,4.717,0,0,1,153.6,65.2ZM159,50.8a21.722,21.722,0,0,0-2.4-2.9.491.491,0,0,0-.8.5,16.562,16.562,0,0,1,.4,3.3,3.45,3.45,0,0,1-3.4,3.7,3.687,3.687,0,0,1-3.4-2.3c-.1-.2-.1-.3-.2-.5a.534.534,0,0,0-.9-.2,3.508,3.508,0,0,0-.5.8,13.57,13.57,0,0,0-1.9,7,8,8,0,0,0,16,0A16.854,16.854,0,0,0,159,50.8Z" transform="translate(142 1822)"/></g></svg>